<mxfile host="drawio-plugin" modified="2024-11-21T16:16:10.201Z" agent="Mozilla/5.0 (Windows NT 10.0; Win64; x64) AppleWebKit/537.36 (KHTML, like Gecko) Chrome/122.0.0.0 Safari/537.36" version="22.1.22" etag="KJYSMYcdPZHIjJz0AT6N" type="embed" pages="2">
  <diagram id="aBdGMHx0V2NN-pSfp96e" name="Layout">
    <mxGraphModel dx="1861" dy="749" grid="1" gridSize="10" guides="1" tooltips="1" connect="1" arrows="1" fold="1" page="1" pageScale="1" pageWidth="850" pageHeight="1100" math="0" shadow="0">
      <root>
        <mxCell id="0" />
        <mxCell id="1" parent="0" />
        <mxCell id="2" value="" style="rounded=0;whiteSpace=wrap;html=1;" vertex="1" parent="1">
          <mxGeometry x="40" y="80" width="760" height="240" as="geometry" />
        </mxCell>
        <mxCell id="3" value="" style="rounded=0;whiteSpace=wrap;html=1;" vertex="1" parent="1">
          <mxGeometry x="40" y="330" width="760" height="110" as="geometry" />
        </mxCell>
        <mxCell id="4" value="" style="rounded=0;whiteSpace=wrap;html=1;" vertex="1" parent="1">
          <mxGeometry x="40" y="450" width="760" height="110" as="geometry" />
        </mxCell>
        <mxCell id="6" value="" style="endArrow=none;html=1;rounded=0;exitX=0.25;exitY=1;exitDx=0;exitDy=0;" edge="1" parent="1" source="4">
          <mxGeometry width="50" height="50" relative="1" as="geometry">
            <mxPoint x="180" y="130" as="sourcePoint" />
            <mxPoint x="230" y="80" as="targetPoint" />
          </mxGeometry>
        </mxCell>
        <mxCell id="7" value="" style="endArrow=none;html=1;rounded=0;exitX=0.25;exitY=1;exitDx=0;exitDy=0;" edge="1" parent="1">
          <mxGeometry width="50" height="50" relative="1" as="geometry">
            <mxPoint x="419.5" y="560" as="sourcePoint" />
            <mxPoint x="419.5" y="80" as="targetPoint" />
          </mxGeometry>
        </mxCell>
        <mxCell id="8" value="" style="endArrow=none;html=1;rounded=0;exitX=0.25;exitY=1;exitDx=0;exitDy=0;" edge="1" parent="1">
          <mxGeometry width="50" height="50" relative="1" as="geometry">
            <mxPoint x="610" y="560" as="sourcePoint" />
            <mxPoint x="610" y="80" as="targetPoint" />
          </mxGeometry>
        </mxCell>
        <mxCell id="9" value="" style="rounded=0;whiteSpace=wrap;html=1;" vertex="1" parent="1">
          <mxGeometry x="50" y="100" width="170" height="60" as="geometry" />
        </mxCell>
        <mxCell id="10" value="" style="rounded=0;whiteSpace=wrap;html=1;" vertex="1" parent="1">
          <mxGeometry x="50" y="170" width="170" height="60" as="geometry" />
        </mxCell>
        <mxCell id="11" value="" style="rounded=0;whiteSpace=wrap;html=1;" vertex="1" parent="1">
          <mxGeometry x="240" y="100" width="170" height="60" as="geometry" />
        </mxCell>
        <mxCell id="12" value="" style="rounded=0;whiteSpace=wrap;html=1;" vertex="1" parent="1">
          <mxGeometry x="430" y="100" width="170" height="60" as="geometry" />
        </mxCell>
        <mxCell id="13" value="" style="rounded=0;whiteSpace=wrap;html=1;" vertex="1" parent="1">
          <mxGeometry x="620" y="100" width="170" height="60" as="geometry" />
        </mxCell>
        <mxCell id="14" value="" style="rounded=0;whiteSpace=wrap;html=1;" vertex="1" parent="1">
          <mxGeometry x="430" y="170" width="170" height="60" as="geometry" />
        </mxCell>
        <mxCell id="15" value="" style="rounded=0;whiteSpace=wrap;html=1;" vertex="1" parent="1">
          <mxGeometry x="430" y="240" width="170" height="60" as="geometry" />
        </mxCell>
        <mxCell id="16" value="Status 1" style="rounded=0;whiteSpace=wrap;html=1;" vertex="1" parent="1">
          <mxGeometry x="40" y="10" width="190" height="60" as="geometry" />
        </mxCell>
        <mxCell id="17" value="Status 2" style="rounded=0;whiteSpace=wrap;html=1;" vertex="1" parent="1">
          <mxGeometry x="230" y="10" width="190" height="60" as="geometry" />
        </mxCell>
        <mxCell id="18" value="Status 3" style="rounded=0;whiteSpace=wrap;html=1;" vertex="1" parent="1">
          <mxGeometry x="420" y="10" width="190" height="60" as="geometry" />
        </mxCell>
        <mxCell id="19" value="Status 4" style="rounded=0;whiteSpace=wrap;html=1;" vertex="1" parent="1">
          <mxGeometry x="610" y="10" width="190" height="60" as="geometry" />
        </mxCell>
        <mxCell id="20" value="" style="rounded=0;whiteSpace=wrap;html=1;" vertex="1" parent="1">
          <mxGeometry x="50" y="340" width="170" height="60" as="geometry" />
        </mxCell>
        <mxCell id="21" value="" style="rounded=0;whiteSpace=wrap;html=1;" vertex="1" parent="1">
          <mxGeometry x="620" y="340" width="170" height="60" as="geometry" />
        </mxCell>
        <mxCell id="22" value="" style="rounded=0;whiteSpace=wrap;html=1;" vertex="1" parent="1">
          <mxGeometry x="240" y="460" width="170" height="60" as="geometry" />
        </mxCell>
        <mxCell id="23" value="" style="rounded=0;whiteSpace=wrap;html=1;" vertex="1" parent="1">
          <mxGeometry x="430" y="460" width="170" height="60" as="geometry" />
        </mxCell>
        <mxCell id="24" value="User 1" style="rounded=0;whiteSpace=wrap;html=1;" vertex="1" parent="1">
          <mxGeometry x="-90" y="80" width="120" height="240" as="geometry" />
        </mxCell>
        <mxCell id="25" value="User 2" style="rounded=0;whiteSpace=wrap;html=1;" vertex="1" parent="1">
          <mxGeometry x="-90" y="330" width="120" height="110" as="geometry" />
        </mxCell>
        <mxCell id="26" value="User 3" style="rounded=0;whiteSpace=wrap;html=1;" vertex="1" parent="1">
          <mxGeometry x="-90" y="450" width="120" height="110" as="geometry" />
        </mxCell>
        <mxCell id="27" value="" style="rounded=0;whiteSpace=wrap;html=1;" vertex="1" parent="1">
          <mxGeometry x="-90" y="40" width="120" height="30" as="geometry" />
        </mxCell>
        <mxCell id="28" value="Filter" style="text;html=1;strokeColor=none;fillColor=none;align=left;verticalAlign=middle;whiteSpace=wrap;rounded=0;" vertex="1" parent="1">
          <mxGeometry x="-90" y="10" width="60" height="30" as="geometry" />
        </mxCell>
      </root>
    </mxGraphModel>
  </diagram>
  <diagram id="2xzJyLIMVl1a7orA3cvz" name="Page-2">
    <mxGraphModel dx="1011" dy="749" grid="1" gridSize="10" guides="1" tooltips="1" connect="1" arrows="1" fold="1" page="1" pageScale="1" pageWidth="850" pageHeight="1100" math="0" shadow="0">
      <root>
        <mxCell id="0" />
        <mxCell id="1" parent="0" />
        <mxCell id="lRDwOCvj44wVvnMtyk2J-1" value="&lt;h1 style=&quot;font-size: 18px;&quot;&gt;Data Example&lt;/h1&gt;&lt;p style=&quot;font-size: 18px;&quot;&gt;{&lt;/p&gt;&lt;p style=&quot;font-size: 18px;&quot;&gt;&lt;span style=&quot;white-space: pre;&quot;&gt;&#x9;&lt;/span&gt;&quot;user&quot;: &quot;user 1&quot;,&lt;/p&gt;&lt;p style=&quot;font-size: 18px;&quot;&gt;&lt;span style=&quot;background-color: initial;&quot;&gt;&lt;span style=&quot;white-space: pre;&quot;&gt;&#x9;&lt;/span&gt;&quot;status&quot;: &quot;status 1&quot;&lt;/span&gt;&lt;/p&gt;&lt;p style=&quot;font-size: 18px;&quot;&gt;&lt;span style=&quot;background-color: initial;&quot;&gt;&lt;span style=&quot;white-space: pre;&quot;&gt;&#x9;&lt;/span&gt;&quot;description&quot;: &quot;Item 1&quot;&lt;/span&gt;&lt;/p&gt;&lt;p style=&quot;font-size: 18px;&quot;&gt;}&lt;/p&gt;" style="text;html=1;strokeColor=none;fillColor=none;spacing=5;spacingTop=-20;whiteSpace=wrap;overflow=hidden;rounded=0;fontSize=18;" vertex="1" parent="1">
          <mxGeometry x="30" y="20" width="800" height="230" as="geometry" />
        </mxCell>
      </root>
    </mxGraphModel>
  </diagram>
</mxfile>
